<?xml version="1.0" encoding="UTF-8" standalone="no"?>
<!-- Created with Inkscape (http://www.inkscape.org/) -->

<svg
   width="200px"
   height="200px"
   version="1.1"
   viewBox="0 0 100 50"
   id="svg939"
   sodipodi:docname="aac_repair_logo.svg"
   inkscape:version="1.1.2 (b8e25be833, 2022-02-05)"
   xmlns:inkscape="http://www.inkscape.org/namespaces/inkscape"
   xmlns:sodipodi="http://sodipodi.sourceforge.net/DTD/sodipodi-0.dtd"
   xmlns="http://www.w3.org/2000/svg"
   xmlns:svg="http://www.w3.org/2000/svg">
  <defs
     id="defs943">
    <filter
       inkscape:collect="always"
       style="color-interpolation-filters:sRGB"
       id="filter48301"
       x="-0.068514065"
       y="-0.068552393"
       width="1.1370281"
       height="1.1371048">
      <feGaussianBlur
         inkscape:collect="always"
         stdDeviation="6.3930096"
         id="feGaussianBlur48303" />
    </filter>
  </defs>
  <sodipodi:namedview
     id="namedview941"
     pagecolor="#ffffff"
     bordercolor="#111111"
     borderopacity="1"
     inkscape:pageshadow="0"
     inkscape:pageopacity="0"
     inkscape:pagecheckerboard="1"
     showgrid="false"
     inkscape:zoom="0.82731493"
     inkscape:cx="135.37771"
     inkscape:cy="91.25908"
     inkscape:current-layer="svg939"
     inkscape:snap-global="false" />
  <g
     id="g48761"
     inkscape:export-filename="C:\Users\rene_\PycharmProjects\aacRepair\docs\source\repair_logo.png"
     inkscape:export-xdpi="100.33447"
     inkscape:export-ydpi="100.33447">
    <path
       id="path48281"
       style="fill:#000000;stroke-width:2.67322;filter:url(#filter48301)"
       d="m 308.1269,96.19735 c -6.23116,0.962946 -12.36215,2.464675 -18.50677,3.85869 -17.31745,4.06446 -34.37582,9.12153 -51.52474,13.83026 -9.01228,2.50733 -18.02457,5.01465 -27.03685,7.52198 -2.09594,-2.0057 -5.21288,-2.98465 -8.04317,-2.16647 -2.76623,0.67152 -4.95257,2.62597 -7.30138,4.00443 -3.3736,1.91212 -7.04933,3.74411 -11.0331,3.59285 -5.93726,0.10487 -11.87388,-0.43672 -17.80901,-0.17333 -4.29663,0.23499 -8.45563,1.58343 -12.37831,3.28641 -5.33355,2.35681 -10.05712,6.10725 -13.48504,10.82949 -3.2144,4.38873 -4.04443,10.53159 -1.67,15.48738 2.04786,4.27849 6.32013,7.0699 10.76052,8.3912 5.67326,1.66783 11.74995,1.69661 17.53915,0.6362 7.03054,-1.30447 13.22546,-5.20107 18.83584,-9.46361 2.63693,-1.95404 5.5825,-3.69515 8.90091,-4.09056 3.11012,-0.49696 6.07265,-0.50121 9.2134,-0.64899 2.37693,-0.16294 4.7889,-0.19975 7.11882,-0.73483 3.04062,-0.80025 5.18895,-3.61454 5.94317,-6.56735 3.83578,-1.12807 7.68733,-2.19973 11.53906,-3.27149 -0.92423,1.20852 -1.85049,2.4155 -2.77344,3.625 v 26.93164 c -3.71354,0.093 -7.42707,0.18685 -11.14062,0.2793 -0.1012,3.55594 -0.199,7.11199 -0.29883,10.66797 -9.25241,1.77608 -18.32011,5.29383 -25.76189,11.16568 -7.52719,5.85807 -13.45206,13.70392 -17.14973,22.48876 -0.26916,0.36673 -0.25494,1.15576 -0.84832,1.06312 -4.29153,0.32495 -8.67985,-0.0558 -12.88572,1.00885 -1.96166,0.71184 -3.01362,2.78373 -3.27817,4.74624 -3.95862,0.0979 -7.96471,-0.19961 -11.89063,0.45118 -2.16648,0.4952 -4.05176,2.32058 -4.24814,4.59262 -0.56026,3.25488 -0.35415,6.57708 -0.44295,9.86473 -0.0676,10.20395 -0.12558,20.41297 0.16053,30.61324 0.11668,1.68711 0.10066,3.50807 0.97783,5.00753 1.09479,1.68273 3.19058,2.23165 5.08581,2.27422 0.94976,0.10704 2.04856,0.1155 2.90247,0.19258 6.70888,0.49359 7.31086,-1.20553 7.31836,8.41797 v 4.60156 c -3.9351,0.0461 -7.89526,-0.16499 -11.80859,0.32031 -2.26188,0.47883 -4.18231,2.46386 -4.28131,4.82397 -0.50468,3.72964 -0.36073,7.50756 -0.417,11.26158 0.0236,3.57853 0.0489,7.18467 0.60732,10.72385 0.44352,1.85729 2.17288,3.38793 4.13222,3.29856 4.66513,0.35815 9.35066,0.26123 14.02571,0.36255 26.80011,0.31059 53.60273,0.26067 80.40413,0.22886 16.44377,-0.0535 32.88984,-0.0937 49.32998,-0.45618 1.40745,-0.12213 2.90779,-0.0351 4.21528,-0.63526 1.46701,-0.73139 2.17548,-2.3805 2.25036,-3.94992 0.395,-3.5166 0.32757,-7.0664 0.42599,-10.59976 0.0277,-3.60704 0.0534,-7.23005 -0.31399,-10.82034 -0.99608,-5.1443 -7.24723,-4.58149 -11.28299,-4.62658 -0.10838,-4.31549 -0.0743,-8.65267 -0.69531,-12.93359 h 30.08789 c 3.4659,-1.86948 6.88829,-3.93163 9.65605,-6.77195 2.71316,-2.59157 5.11412,-5.51901 7.05879,-8.73001 0.7172,0.0224 1.43499,0.003 2.15235,-0.002 0.071,2.21826 0.63628,4.8151 2.73828,5.98242 0.82973,0.48143 1.76793,0.75207 2.71484,0.87891 v 30.65039 c -2.35512,0.002 -4.97656,0.78286 -6.23039,2.9358 -1.49574,2.4444 -1.07935,5.4284 -1.04287,8.15262 0.0683,2.2554 0.51573,4.88247 2.54279,6.22213 1.92703,1.17989 4.27786,0.90354 6.43437,1.07809 5.912,0.17972 11.83624,0.15458 17.74154,-0.17952 1.8129,-0.12346 3.93992,-0.27668 5.1112,-1.87514 1.46156,-1.91881 1.30814,-4.46167 1.44228,-6.74174 0.0172,-2.20773 -0.0759,-4.4939 -0.87001,-6.57466 -0.91303,-1.87497 -3.02613,-2.74646 -5.00586,-2.89063 -0.45704,-0.14074 -1.35784,0.1731 -1.12305,-0.58984 v -30.33789 c 2.04587,-0.4749 3.9224,-2.17436 4.00595,-4.3697 0.57597,-4.3128 0.42789,-8.67808 0.51577,-13.01811 0.0301,-5.29688 0.0196,-10.61038 -0.50677,-15.88434 -0.28553,-1.88474 -1.70375,-3.53519 -3.57133,-3.99596 -0.74124,-0.006 -0.34685,-0.84442 -0.44362,-1.33033 v -27.65547 c 2.19331,-0.0719 4.75652,-0.61342 5.93164,-2.67773 1.14156,-2.05901 0.97255,-4.51231 1.06012,-6.78734 -0.02,-2.11403 -0.0841,-4.34632 -1.04145,-6.2729 -0.95591,-1.68487 -2.96856,-2.40508 -4.82386,-2.35474 -6.25282,-0.4939 -12.53477,-0.38598 -18.79986,-0.25594 -1.79706,0.0989 -3.65534,0.10515 -5.37151,0.68654 -2.16441,0.96518 -3.14948,3.45143 -3.111,5.70195 -0.13589,2.57903 -0.23806,5.21537 0.32975,7.74922 0.69178,2.30622 2.89074,4.02213 5.29654,4.13505 0.50713,0.0644 1.01847,0.0965 1.52963,0.10324 v 22.25976 c -0.62124,-8.4279 -2.68818,-16.98582 -7.48499,-24.05765 -4.10879,-6.10237 -10.10518,-10.82239 -16.84805,-13.70853 -1.97689,-0.87001 -4.00545,-1.61829 -6.05563,-2.29632 -0.18234,-3.77799 -0.36425,-7.556 -0.54688,-11.33398 -3.69205,-0.0932 -7.38411,-0.18619 -11.07617,-0.2793 -0.0872,-14.25586 -0.17479,-28.51172 -0.26172,-42.76758 -6.6621,-0.0779 -13.32426,-0.1515 -19.98632,-0.23242 11.99455,-3.469 23.92805,-7.16539 35.71511,-11.28794 2.25559,-0.83831 4.65669,-1.53935 6.74778,-2.79995 1.62362,-1.10592 2.48419,-3.14863 2.16435,-5.08402 -0.25282,-2.29623 -1.01858,-4.49458 -1.57772,-6.72669 -0.55363,-1.83756 -1.08755,-3.826702 -2.46554,-5.230303 -1.67996,-1.443191 -4.03587,-1.039559 -6.07351,-1.20749 -0.0969,0.02939 -0.0103,0.351518 -0.0398,0.459443 z"
       sodipodi:nodetypes="cccccccccccccccccccccccccccccccccccccccccccccccccccccccccccccccccccccccccccccccccccccccccccccccccccsc"
       transform="matrix(0.37409598,0,0,0.37406726,-43.602951,-53.149727)" />
    <path
       id="path45786"
       style="fill:#ffffff;stroke-width:1"
       d="m 70.278588,-18.747959 c -2.331052,0.360206 -4.624631,0.921954 -6.923308,1.443408 -6.478389,1.520382 -12.859857,3.412068 -19.275199,5.17345 -3.371457,0.93791 -6.742919,1.875816 -10.114376,2.8137264 -0.784083,-0.7502664 -1.950118,-1.1164594 -3.008918,-0.8104054 -1.034836,0.2511935 -1.852737,0.9822893 -2.731417,1.4979261 -1.26205,0.7152614 -2.637126,1.4005489 -4.127438,1.3439675 -2.221105,0.039228 -4.441971,-0.1633626 -6.662279,-0.064837 -1.607352,0.087902 -3.163218,0.5923094 -4.630676,1.2293384 -1.99526,0.8816055 -3.7623285,2.2845223 -5.0446996,4.0509577 -1.2024941,1.64168017 -1.513005,3.939523 -0.6247403,5.7933218 0.7660962,1.600443 2.3643353,2.6446181 4.0254669,3.1388732 2.122344,0.6238806 4.395609,0.6346462 6.561326,0.2379816 2.630097,-0.4879596 4.947591,-1.9455501 7.046412,-3.5400267 0.986465,-0.7309424 2.088391,-1.3822346 3.329795,-1.5301446 1.163483,-0.1858964 2.271754,-0.1874862 3.446695,-0.2427659 0.8892,-0.060951 1.791509,-0.07472 2.663122,-0.2748758 1.137484,-0.2993474 1.941166,-1.35208111 2.223316,-2.45663066 1.43495,-0.42197404 2.8758,-0.82284694 4.316716,-1.22375734 -0.34575,0.4520678 -0.69226,0.9035595 -1.037532,1.35599386 V 9.2617868 c -1.389221,0.034788 -2.778437,0.069895 -4.167662,0.104477 -0.03786,1.3301612 -0.07444,2.6603622 -0.111791,3.9905382 -3.461289,0.664374 -6.853479,1.980249 -9.637419,4.176715 -2.815892,2.191313 -5.032362,5.126188 -6.415645,8.412309 -0.100692,0.137182 -0.09537,0.432332 -0.317353,0.397679 -1.605444,0.121553 -3.247097,-0.02087 -4.820496,0.377377 -0.733849,0.266276 -1.127383,1.041303 -1.226351,1.775413 -1.480903,0.03662 -2.979566,-0.07467 -4.4482364,0.168772 -0.8104715,0.185238 -1.5157471,0.868053 -1.5892121,1.717949 -0.209591,1.217544 -0.1324861,2.46027 -0.1657058,3.690072 -0.025289,3.816964 -0.046979,7.635824 0.060054,11.451411 0.043649,0.631093 0.037656,1.312254 0.3658023,1.873153 0.4095565,0.629454 1.1935831,0.834787 1.9025811,0.850711 0.3553014,0.04004 0.766358,0.04321 1.0858019,0.07204 2.509765,0.184636 2.734963,-0.450949 2.737769,3.148887 v 1.721293 c -1.472105,0.01724 -2.953585,-0.06172 -4.4175456,0.119818 -0.8461602,0.179114 -1.5645853,0.921649 -1.6016208,1.804489 -0.1887988,1.395136 -0.1349477,2.808332 -0.1559981,4.212588 0.00883,1.338611 0.018293,2.68755 0.227196,4.011442 0.1659191,0.694751 0.8128657,1.267313 1.5458469,1.233883 1.7452056,0.133972 3.4980436,0.09772 5.2469616,0.135618 10.025813,0.116181 20.052566,0.09751 30.078862,0.08561 6.151548,-0.02001 12.303956,-0.03505 18.454147,-0.170642 0.526521,-0.04568 1.087792,-0.01313 1.576919,-0.23763 0.548803,-0.273589 0.813838,-0.890467 0.841851,-1.477536 0.147768,-1.315445 0.122542,-2.643309 0.159361,-3.965023 0.01036,-1.349276 0.01998,-2.704525 -0.117463,-4.047535 -0.372629,-1.924314 -2.711159,-1.713785 -4.220921,-1.730652 -0.04054,-1.614284 -0.0278,-3.236681 -0.260112,-4.838033 h 11.255758 c 1.29658,-0.699311 2.576882,-1.470694 3.61229,-2.533164 1.014982,-0.969422 1.913171,-2.064481 2.640665,-3.265611 0.268301,0.0084 0.536824,0.0011 0.805185,-7.48e-4 0.02656,0.829778 0.23803,1.801171 1.02438,2.237827 0.310398,0.180087 0.661375,0.281325 1.01561,0.328772 V 56.55936 c -0.88104,7.48e-4 -1.861711,0.292842 -2.330763,1.098187 -0.559551,0.91437 -0.403781,2.030586 -0.390134,3.049628 0.02555,0.843671 0.192933,1.826372 0.951248,2.327495 0.720894,0.441358 1.60033,0.337985 2.407072,0.403278 2.211655,0.06723 4.427889,0.05782 6.637038,-0.06715 0.678199,-0.04618 1.473909,-0.103497 1.91208,-0.701429 0.546763,-0.717764 0.48937,-1.668965 0.539551,-2.521864 0.0064,-0.82584 -0.02839,-1.681021 -0.325467,-2.459365 -0.341561,-0.701365 -1.132063,-1.027361 -1.872672,-1.08129 -0.170977,-0.05265 -0.507963,0.06475 -0.420129,-0.22064 V 45.037797 c 0.765352,-0.177645 1.467354,-0.813357 1.49861,-1.634562 0.215468,-1.613277 0.160072,-3.246186 0.192947,-4.869649 0.01126,-1.981389 0.0073,-3.968996 -0.18958,-5.941811 -0.106816,-0.70502 -0.637366,-1.322399 -1.33602,-1.494758 -0.277295,-0.0022 -0.129756,-0.31587 -0.165957,-0.497633 V 20.254378 c 0.820509,-0.02689 1.779395,-0.22946 2.219003,-1.001651 0.427053,-0.770208 0.363827,-1.687908 0.396586,-2.538922 -0.0075,-0.790789 -0.03146,-1.625816 -0.389602,-2.346486 -0.357602,-0.630255 -1.110526,-0.899662 -1.804587,-0.880831 -2.339154,-0.184752 -4.689207,-0.144383 -7.032952,-0.09574 -0.672272,0.037 -1.367448,0.03933 -2.00946,0.256812 -0.809697,0.361042 -1.178208,1.291067 -1.163812,2.132913 -0.05084,0.96473 -0.08906,1.950899 0.123358,2.898729 0.258792,0.862682 1.081414,1.504547 1.981414,1.546787 0.189715,0.02409 0.381006,0.0361 0.572228,0.03862 v 8.326647 c -0.232403,-3.152601 -1.005637,-6.353839 -2.800104,-8.999179 -1.537082,-2.282697 -3.780307,-4.048302 -6.302788,-5.127912 -0.739547,-0.325443 -1.498423,-0.60535 -2.265387,-0.858978 -0.06821,-1.413223 -0.136264,-2.826453 -0.204585,-4.2396713 -1.381182,-0.034863 -2.762366,-0.069648 -4.143551,-0.104477 -0.03262,-5.3326505 -0.06539,-10.665301 -0.09791,-15.9979515 -2.492264,-0.02914 -4.984552,-0.056671 -7.476801,-0.086941 4.487112,-1.2976393 8.951387,-2.6803378 13.360879,-4.2224482 0.843807,-0.313585 1.742049,-0.575821 2.524317,-1.04737 0.60739,-0.413688 0.929325,-1.177799 0.809675,-1.901765 -0.09458,-0.858945 -0.381047,-1.681276 -0.590219,-2.516237 -0.207111,-0.68737 -0.406848,-1.431443 -0.922349,-1.956484 -0.628466,-0.539851 -1.509802,-0.388865 -2.272075,-0.451683 -0.03625,0.01099 -0.0039,0.131492 -0.01489,0.171863 z"
       sodipodi:nodetypes="cccccccccccccccccccccccccccccccccccccccccccccccccccccccccccccccccccccccccccccccccccccccccccccccccccsc" />
    <path
       style="fill:#000000;stroke-width:1"
       d="m 81.609596,-0.18519577 c 0,-0.0388357 -0.1473,-0.18612465 -0.327334,-0.32730886 -0.142366,-0.0595104 0.174598,0.30535485 0.327334,0.32730886 z"
       id="path431"
       sodipodi:nodetypes="ccc" />
    <path
       style="fill:#323232;fill-opacity:1;stroke-width:1"
       d="M 8.5112414,63.065396 C 8.2221999,62.776373 8.1945318,55.582188 8.4804159,55.048061 8.6590355,54.714329 8.8982512,54.686289 11.566708,54.686289 h 2.892663 v -3.927706 -3.927706 h -2.861834 c -1.9764725,0 -2.9312739,-0.06943 -3.0862918,-0.224441 -0.1674903,-0.167477 -0.2244576,-2.228965 -0.2244576,-8.122605 0,-6.93077 0.035988,-7.934161 0.2939309,-8.192073 0.2409627,-0.24094 0.7971799,-0.293908 3.0862915,-0.293908 h 2.792361 v -0.818751 c 0,-0.45031 0.110856,-0.910745 0.246346,-1.023182 0.144506,-0.119919 1.315483,-0.226038 2.832419,-0.256697 2.07195,-0.04187 2.614912,-0.108034 2.731144,-0.332807 0.07978,-0.154303 0.442159,-0.932337 0.805275,-1.728965 1.796129,-3.940481 4.961568,-7.215668 8.816275,-9.121941 1.725447,-0.853288 4.291188,-1.663746 6.212971,-1.962536 l 0.78858,-0.122605 0.05314,-1.901731 0.05314,-1.901732 2.10429,-0.05289 2.10429,-0.05288 V 5.2080125 -0.30509929 l 1.675437,-2.18830841 c 0.921488,-1.2035689 1.655914,-2.2078348 1.632046,-2.2316965 -0.02387,-0.023866 -1.219713,0.2875754 -2.657439,0.6920843 -1.437726,0.4045126 -3.560979,0.9983181 -4.718338,1.3195746 -1.958856,0.5437292 -2.10429,0.6161785 -2.10429,1.0482823 0,0.6566003 -0.547624,1.5025347 -1.11117,1.71646003 -0.263307,0.09995077 -1.699226,0.22200892 -3.190934,0.27123991 -3.703067,0.12221151 -4.752968,0.45679598 -7.215574,2.29945876 -3.197615,2.3926427 -5.486196,3.2485011 -8.686524,3.2485011 -4.328485,0 -6.9730291,-1.9123066 -6.6903921,-4.8379203 0.1256364,-1.30049351 0.6478332,-2.2323998 2.0061761,-3.5802165 1.419327,-1.4083333 3.249786,-2.4015006 5.539804,-3.0057763 1.363808,-0.3598752 1.807392,-0.3826633 5.413539,-0.2780928 3.323364,0.096371 4.08637,0.066868 4.956772,-0.1916646 1.272813,-0.3780623 2.792462,-1.143172 4.020933,-2.0244558 1.214761,-0.8714458 2.125108,-0.9128438 2.905869,-0.132143 l 0.538391,0.5383501 7.911143,-2.2015579 c 4.351125,-1.2108597 10.646715,-2.9616547 13.990198,-3.8906627 6.900634,-1.917382 15.796177,-3.906262 16.151702,-3.611224 0.1234,0.102404 0.431202,0.999034 0.684009,1.992512 0.433895,1.705126 0.441399,1.819661 0.133993,2.044427 -0.700068,0.511863 -10.655978,3.7371415 -16.782656,5.4368433 -3.549236,0.9846535 -6.916099,1.9333255 -7.48192,2.1081645 -1.012146,0.3127502 -0.897329,0.3193936 7.107824,0.4113992 l 8.136588,0.093517 0.04877,7.9895829 0.04876,7.9895751 2.102289,0.05287 2.102284,0.05286 0.09352,1.936992 0.09352,1.936991 1.496384,0.503753 c 6.75966,2.275612 9.899077,7.258322 9.909855,15.728379 0.0019,1.594462 -0.05734,3.172558 -0.131921,3.506881 -0.129385,0.579961 -0.11007,0.607859 0.420858,0.607859 0.553295,0 0.556468,-0.0062 0.556468,-1.084795 0,-0.596637 0.101006,-1.185793 0.224457,-1.309235 0.123452,-0.123442 0.586396,-0.22444 1.028764,-0.22444 h 0.804307 v -6.826728 -6.826727 l -1.075526,-0.003 c -1.572621,-0.0042 -1.63667,-0.08093 -1.63667,-1.960992 0,-1.221759 0.06679,-1.645641 0.280572,-1.780777 0.432369,-0.273297 8.664295,-0.235213 8.940894,0.04136 0.301618,0.301595 0.301618,3.17723 0,3.478825 -0.123452,0.123446 -0.712653,0.224441 -1.309336,0.224441 h -1.084879 v 6.826727 6.826728 h 0.617259 c 0.339492,0 0.718264,0.100998 0.841716,0.224444 0.320099,0.320074 0.320099,10.453059 0,10.773137 -0.123452,0.123442 -0.502224,0.22444 -0.841716,0.22444 h -0.617259 v 7.200795 7.200795 h 1.084879 c 0.596683,0 1.185884,0.100998 1.309336,0.22444 0.301618,0.301595 0.301618,3.17723 0,3.478826 -0.275765,0.275743 -8.508278,0.314829 -8.939151,0.04244 -0.203733,-0.128795 -0.288611,-0.581053 -0.315153,-1.679255 -0.04543,-1.8794 0.102674,-2.066456 1.636105,-2.066456 h 1.108929 V 50.85195 43.651155 h -0.804307 c -0.442368,0 -0.905312,-0.100998 -1.028764,-0.22444 -0.123451,-0.123442 -0.224457,-0.712598 -0.224457,-1.309235 v -1.084795 h -1.563321 -1.563321 l -0.691225,1.119785 c -0.912248,1.477839 -2.760671,3.332808 -4.064126,4.078511 L 71.1829,46.830727 H 55.529106 39.875314 l 0.05805,0.690973 0.05806,0.690974 9.269762,-0.05198 c 7.944227,-0.04455 9.302184,-0.01291 9.496475,0.221164 0.149616,0.180259 0.249518,1.282729 0.293777,3.241955 l 0.06707,2.968811 1.994074,0.09352 c 1.485329,0.06966 2.042227,0.165094 2.182824,0.374067 0.220466,0.32769 0.148295,7.633329 -0.07899,7.995688 -0.209995,0.334797 -54.3704437,0.344055 -54.7051698,0.0094 z"
       id="path337" />
    <path
       style="fill:#d8d8d8;fill-opacity:1;stroke-width:1"
       d="m 71.060168,-14.601437 c -0.216097,-0.860939 -0.47683,-1.411001 -0.66882,-1.411001 -0.249679,0 -0.243892,0.542547 0.01369,1.281326 0.250158,0.717562 0.8316,0.832648 0.65515,0.129675 z"
       id="path413" />
    <path
       style="fill:#b9b9b9;fill-opacity:1;stroke-width:1"
       d="m 69.209537,-13.66055 c 0.02125,-0.01586 -0.07168,-0.404269 -0.206504,-0.863074 -0.205356,-0.698814 -0.329287,-0.844169 -0.763639,-0.895652 -0.503166,-0.05964 -0.514673,-0.04107 -0.389179,0.627827 0.07113,0.379106 0.207197,0.8941 0.302378,1.144425 0.152923,0.40219 0.222232,0.429561 0.595684,0.235251 0.232445,-0.120943 0.440012,-0.232894 0.46126,-0.248777 z"
       id="path411" />
    <path
       style="fill:#d8d8d8;fill-opacity:1;stroke-width:1"
       d="m 66.661054,-12.645833 c 0.241101,0 0.214828,-0.348163 -0.108391,-1.436466 -0.253577,-0.853824 -0.324517,-0.93478 -0.748192,-0.853794 -0.521232,0.09963 -0.578027,0.394618 -0.264527,1.373942 0.111933,0.349674 0.238901,0.749709 0.282147,0.888967 0.0445,0.143305 0.206351,0.204188 0.372921,0.140275 0.16186,-0.06211 0.371582,-0.112924 0.466042,-0.112924 z"
       id="path409" />
    <path
       style="fill:#b9b9b9;fill-opacity:1;stroke-width:1"
       d="m 64.150686,-11.824186 0.404173,-0.108413 -0.334617,-1.206651 c -0.18404,-0.663655 -0.369592,-1.241619 -0.412344,-1.284363 -0.1756,-0.175588 -0.903101,0.15857 -0.903101,0.414814 0,0.44771 0.576183,2.298367 0.714703,2.295583 0.06986,-0.0015 0.308891,-0.05134 0.531186,-0.11097 z"
       id="path407" />
    <path
       style="fill:#d8d8d8;fill-opacity:1;stroke-width:1"
       d="m 62.047283,-11.124007 c 0.104904,-0.169722 -0.509766,-2.577275 -0.708811,-2.776305 -0.06354,-0.06353 -0.318236,-0.02316 -0.565988,0.08971 l -0.450461,0.205228 0.385506,1.321423 c 0.332287,1.138993 0.444486,1.321422 0.812727,1.321422 0.234974,0 0.472136,-0.07266 0.527027,-0.161477 z"
       id="path405" />
    <path
       style="fill:#b9b9b9;fill-opacity:1;stroke-width:1"
       d="m 59.692236,-10.501024 c 0.03345,-0.02922 -0.09956,-0.628961 -0.295532,-1.332761 -0.287926,-1.034027 -0.434381,-1.291123 -0.763047,-1.339509 -0.228344,-0.03363 -0.452473,0.05931 -0.511019,0.211872 -0.09045,0.235692 0.369072,2.197974 0.612227,2.61436 0.07306,0.125114 0.76549,0.01377 0.957371,-0.153962 z"
       id="path403" />
    <path
       style="fill:#d8d8d8;fill-opacity:1;stroke-width:1"
       d="m 57.27839,-10.002408 c -0.0082,-0.168027 -0.15837,-0.810495 -0.333634,-1.427706 -0.284541,-1.002033 -0.366827,-1.116763 -0.768431,-1.071411 -0.247371,0.02794 -0.488827,0.08985 -0.536573,0.13759 -0.07584,0.07583 0.480433,2.4250065 0.646999,2.7323177 0.135374,0.2497572 1.00609,-0.07582 0.991639,-0.3707907 z"
       id="path401" />
    <path
       style="fill:#b9b9b9;fill-opacity:1;stroke-width:1"
       d="m 54.655704,-9.0765052 c 0.372539,-0.2358606 -0.286917,-2.8225728 -0.718508,-2.8183278 -0.762535,0.0075 -0.826258,0.269389 -0.403889,1.659845 0.394159,1.2975872 0.587496,1.4971408 1.122397,1.1584828 z"
       id="path399" />
    <path
       style="fill:#d8d8d8;fill-opacity:1;stroke-width:1"
       d="m 52.115798,-8.3312323 0.458241,-0.1742069 -0.350502,-1.2639171 c -0.409938,-1.4782387 -0.492138,-1.5829627 -1.068994,-1.3618857 -0.294211,0.112755 -0.402976,0.272011 -0.337921,0.494801 0.05276,0.18069 0.23292,0.8124783 0.400358,1.4039722 0.167438,0.5914938 0.33507,1.0754434 0.37251,1.0754434 0.03744,0 0.274283,-0.078393 0.526308,-0.1742069 z"
       id="path397" />
    <path
       style="fill:#b9b9b9;fill-opacity:1;stroke-width:1"
       d="m 49.871555,-7.7025038 c 0.240517,-0.092286 0.2272,-0.2866403 -0.09933,-1.4495106 -0.207399,-0.7386108 -0.399748,-1.3680686 -0.427438,-1.3987906 -0.02768,-0.03071 -0.260375,-0.003 -0.517068,0.06127 -0.416227,0.104458 -0.451684,0.181326 -0.327723,0.7104774 0.508725,2.1715801 0.633112,2.3599043 1.371559,2.0765558 z"
       id="path395" />
    <path
       style="fill:#d8d8d8;fill-opacity:1;stroke-width:1"
       d="m 47.72002,-7.1256248 c 0.03322,-0.033217 -0.11747,-0.6576177 -0.334868,-1.3875501 -0.29059,-0.9756647 -0.479868,-1.3263939 -0.714688,-1.3242879 -0.687296,0.00617 -0.736786,0.2382921 -0.350932,1.6460531 0.36058,1.3155534 0.393684,1.3636959 0.85757,1.2472749 0.265388,-0.066603 0.509699,-0.1482728 0.542918,-0.18149 z"
       id="path393" />
    <path
       style="fill:#b9b9b9;fill-opacity:1;stroke-width:1"
       d="m 45.17949,-6.8540033 c -0.02708,-0.2315776 -0.181373,-0.8754483 -0.342837,-1.4308185 -0.261351,-0.8989397 -0.338059,-0.9961112 -0.698923,-0.8853349 -0.582494,0.1788116 -0.582819,0.1798702 -0.357412,1.1541808 0.383479,1.6575481 0.542159,1.9287581 1.021518,1.7458916 0.296632,-0.1131628 0.411887,-0.2913685 0.377654,-0.583919 z"
       id="path391" />
    <path
       style="fill:#d8d8d8;fill-opacity:1;stroke-width:1"
       d="m 42.672239,-5.702239 c 0.20469,-0.1297452 0.187777,-0.387702 -0.09469,-1.4443111 -0.342459,-1.2810008 -0.615639,-1.5688867 -1.157637,-1.2199343 -0.212696,0.1369385 -0.198087,0.3848142 0.08819,1.4960334 0.343595,1.3337031 0.560178,1.5510437 1.164137,1.168212 z"
       id="path389" />
    <path
       style="fill:#b9b9b9;fill-opacity:1;stroke-width:1"
       d="m 40.153409,-5.0295202 c 0.310638,-0.2271261 0.309045,-0.3043935 -0.03184,-1.5430274 -0.327484,-1.1899416 -0.397915,-1.2982416 -0.805646,-1.2388808 -0.245732,0.035761 -0.48065,0.097691 -0.522036,0.1375894 -0.07227,0.069678 0.513776,2.4546667 0.674057,2.7431437 0.112442,0.2023741 0.313085,0.1734475 0.685471,-0.098825 z"
       id="path387" />
    <path
       style="fill:#d8d8d8;fill-opacity:1;stroke-width:1"
       d="m 36.671316,-4.0302818 c 0.745854,-0.2182607 1.356098,-0.4874732 1.356098,-0.5982495 0,-0.2436038 -0.56992,-2.474814 -0.654009,-2.5604193 -0.09257,-0.094239 -3.159518,0.745834 -3.348204,0.9171119 -0.144551,0.1312153 0.306485,2.2046253 0.578199,2.6579873 0.0965,0.1610173 0.09049,0.1622292 2.067916,-0.4164304 z"
       id="path385" />
    <path
       style="fill:#eca228;fill-opacity:1;stroke-width:1"
       d="m 47.936293,-3.1900856 c 0.871887,-0.377849 1.622417,-0.7241605 1.667847,-0.7695872 0.04543,-0.045427 -0.794191,-0.082351 -1.865815,-0.082055 l -1.948419,3.74e-4 -0.374096,0.5702207 c -0.205753,0.3136217 -0.353053,0.6500391 -0.327334,0.7475996 0.02574,0.097557 -0.02387,0.1563339 -0.110171,0.1306168 -0.08632,-0.025698 -0.386221,0.2241935 -0.66646,0.5553552 l -0.509526,0.6021136 1.274365,-0.5339024 c 0.700903,-0.2936503 1.987726,-0.8430541 2.859609,-1.2208994 z"
       id="path383" />
    <path
       style="fill:#eca228;fill-opacity:1;stroke-width:1"
       d="m 17.594258,4.1623261 c 1.490223,-0.3636831 3.051288,-1.1723903 4.805282,-2.4893689 1.856687,-1.39408513 2.736983,-1.89038635 4.013597,-2.26280771 1.258032,-0.36700113 3.790221,-0.67386719 5.321246,-0.64485829 1.82805,0.034639 1.803805,0.03906 1.804467,-0.3293625 0.0011,-0.5974453 -1.349469,-5.3727692 -1.592639,-5.6313694 -0.199431,-0.2120811 -0.431984,-0.1231018 -1.404959,0.5375833 -3.081997,2.0927829 -5.008685,2.5713122 -8.974061,2.2288798 -2.10172,-0.1814937 -3.042792,-0.1849987 -4.180949,-0.015561 -5.422342,0.8072297 -9.4560764,5.0007593 -7.186683,7.4713875 0.520547,0.5667044 1.767143,1.1443092 2.926272,1.3558741 1.034226,0.1887656 3.237042,0.080118 4.468427,-0.2203969 z"
       id="path381" />
    <path
       style="fill:#eca228;fill-opacity:1;stroke-width:1"
       d="m 48.876198,3.5650642 c 3.240606,-1.395544 7.533357,-3.23951976 9.539447,-4.09772357 l 3.647436,-1.56037293 0.05654,-0.9746173 0.05654,-0.9746173 h -4.26102 -4.261021 l -5.568774,2.3747286 -5.568774,2.3747286 v 2.7887088 c 0,2.1548594 0.05314,2.7680005 0.23381,2.6976123 0.128595,-0.050103 2.885215,-1.2329033 6.125822,-2.6284472 z"
       id="path379" />
    <path
       style="fill:#d69225;fill-opacity:1;stroke-width:1"
       d="M 48.876198,11.025985 C 52.116804,9.6283391 54.936553,8.4066205 55.142305,8.31105 55.348058,8.215483 56.989404,7.5055934 58.789741,6.7335261 l 3.27334,-1.4037697 0.05151,-2.9091922 c 0.02832,-1.60005396 0.01152,-2.90919211 -0.03733,-2.90919211 -0.09711,0 -0.757294,0.28111902 -11.844956,5.04383311 L 42.703621,7.7891514 V 10.17306 c 0,1.311146 -0.05543,2.661047 -0.123186,2.999776 -0.09754,0.487668 -0.06833,0.59281 0.140286,0.505095 0.14491,-0.06093 2.914878,-1.254303 6.155484,-2.651946 z"
       id="path377" />
    <path
       style="fill:#bbbbbb;fill-opacity:1;stroke-width:1"
       d="m 87.595132,16.811979 v -0.467584 l -2.665434,-0.03651 c -1.465989,-0.02009 -2.981078,-0.05022 -3.366864,-0.06697 -0.654028,-0.02839 -0.70143,0.0057 -0.70143,0.5041 v 0.534554 h 3.366864 3.366864 z"
       id="path375" />
    <path
       style="fill:#bbbbbb;fill-opacity:1;stroke-width:1"
       d="m 66.458709,15.222193 v -3.179571 h -1.496384 -1.496384 v 3.179571 3.179572 h 1.496384 1.496384 z"
       id="path373" />
    <path
       style="fill:#bbbbbb;fill-opacity:1;stroke-width:1"
       d="m 41.20723,15.222193 v -3.179571 h -1.496384 -1.496384 v 3.179571 3.179572 h 1.496384 1.496384 z"
       id="path371" />
    <path
       style="fill:#eca228;fill-opacity:1;stroke-width:1"
       d="m 49.904962,18.056871 c 3.600673,-1.549237 7.809253,-3.362442 9.352399,-4.029348 l 2.80572,-1.212557 0.05163,-2.9342138 c 0.04815,-2.7363282 0.02922,-2.9275776 -0.280572,-2.8358974 -0.182709,0.054068 -3.572807,1.4991942 -7.533549,3.2113932 -3.960741,1.7122 -8.231293,3.551025 -9.490119,4.086274 l -2.288771,0.973188 -0.0026,2.941149 -0.0026,2.941152 0.420858,-0.162173 c 0.231472,-0.0892 3.366864,-1.42973 6.967538,-2.978967 z"
       id="path369" />
    <path
       style="fill:#eca228;fill-opacity:1;stroke-width:1"
       d="m 62.156605,24.012774 c 0,-1.131554 -0.06497,-2.05737 -0.144386,-2.05737 -0.07942,0 -2.120574,0.849148 -4.535914,1.886997 -2.415343,1.03785 -4.559871,1.958336 -4.765624,2.045516 -0.218333,0.09251 1.670257,0.163452 4.535914,0.170369 l 4.91001,0.01186 z"
       id="path367" />
    <path
       style="fill:#d69225;fill-opacity:1;stroke-width:1"
       d="m 55.329353,23.175578 6.733728,-2.893994 0.05163,-2.926848 c 0.04816,-2.730025 0.02929,-2.920081 -0.280572,-2.826179 -0.288024,0.08728 -12.488338,5.318424 -17.377065,7.450776 l -1.706929,0.744529 -0.129418,1.483532 c -0.07118,0.815941 -0.07668,1.56886 -0.01223,1.673143 0.07114,0.115108 1.270403,0.189495 3.052159,0.189323 l 2.934966,-3.75e-4 6.733728,-2.89399 z"
       id="path365" />
    <path
       style="fill:#ffffff;fill-opacity:1;stroke-width:1"
       d="m 66.956829,29.604934 c 1.084227,-0.670037 1.776428,-2.599962 1.486597,-4.144782 -0.184006,-0.980763 -1.26272,-2.089173 -2.764161,-2.840255 -0.730591,-0.365471 -1.527468,-0.664493 -1.770836,-0.664493 h -0.442488 v 2.581064 c 0,1.758116 -0.07157,2.652627 -0.224458,2.805504 -0.324027,0.323999 -21.485772,0.323999 -21.809795,0 -0.152998,-0.152986 -0.224458,-1.05019 -0.224458,-2.81811 v -2.593666 l -0.420858,0.130512 c -1.11821,0.346767 -2.598126,1.269831 -3.282733,2.047524 -1.162698,1.32079 -1.328733,2.73472 -0.598281,5.094725 l 0.246032,0.794893 h 14.58482 c 14.491558,0 14.588883,-0.0026 15.220619,-0.392916 z"
       id="path363" />
    <path
       style="fill:#bbbbbb;fill-opacity:1;stroke-width:1"
       d="m 84.789412,25.60256 v -6.826728 h -0.654668 -0.654668 v 6.702036 c 0,3.686123 0.05611,6.758154 0.124701,6.826728 0.06858,0.06858 0.363184,0.124691 0.654668,0.124691 h 0.529967 z"
       id="path361" />
    <path
       style="fill:#bbbbbb;fill-opacity:1;stroke-width:1"
       d="m 80.113212,38.12252 v -1.601072 l -0.678083,0.05804 c -0.664832,0.05692 -0.688037,0.08632 -1.187545,1.504652 -0.280205,0.79563 -0.466071,1.489992 -0.413032,1.543028 0.05304,0.05304 0.587432,0.09643 1.187549,0.09643 h 1.091111 z"
       id="path359" />
    <path
       style="fill:#bbbbbb;fill-opacity:1;stroke-width:1"
       d="M 86.566368,38.040296 V 33.832039 H 84.04122 81.516072 l -0.0506,4.0166 c -0.02783,2.209129 -0.0085,4.12634 0.04298,4.260469 0.07186,0.187258 0.669826,0.23175 2.575751,0.191661 l 2.482165,-0.05222 z"
       id="path357" />
    <path
       style="fill:#bbbbbb;fill-opacity:1;stroke-width:1"
       d="m 72.188939,44.576284 c 1.546464,-1.200839 2.757865,-2.775624 3.804848,-4.946202 2.078758,-4.309633 2.522114,-9.159972 1.290754,-14.121039 -0.769923,-3.101994 -2.08248,-5.280476 -4.131355,-6.85693 -1.114013,-0.857145 -3.237584,-1.930886 -4.496663,-2.273648 l -0.70143,-0.190954 v 1.399973 c 0,2.110966 -0.01388,2.123516 -2.35055,2.123516 -1.627609,0 -1.982941,0.0512 -2.078204,0.299426 -0.143316,0.373439 0.152006,0.562077 1.123006,0.717338 1.658517,0.265184 4.049207,1.99502 4.798492,3.472044 0.515751,1.016673 0.605193,1.738271 0.373695,3.014813 -0.253532,1.398036 -0.580454,2.097627 -1.372996,2.938127 -1.235586,1.310338 -0.365895,1.237758 -16.073269,1.341371 l -14.176966,0.09352 0.849797,0.833837 0.849796,0.833833 v 6.008478 c 0,3.304664 0.05833,6.06681 0.129632,6.138103 0.07129,0.07129 7.089949,0.106359 15.597008,0.07793 L 71.09191,45.42813 Z"
       id="path355" />
    <path
       style="fill:#bbbbbb;fill-opacity:1;stroke-width:1"
       d="m 14.459368,38.463774 v -6.969655 h -2.3381 -2.3381002 v 7.027265 7.027269 l 2.3381002,-0.05761 2.3381,-0.05761 z"
       id="path353" />
    <path
       style="fill:#bbbbbb;fill-opacity:1;stroke-width:1"
       d="M 38.588558,41.109567 V 34.079021 L 37.64073,33.020362 c -1.885167,-2.105602 -2.921476,-5.245893 -2.440445,-7.395197 0.461436,-2.061758 2.17805,-3.772053 4.703875,-4.686562 0.897853,-0.325079 1.209546,-0.527629 1.209546,-0.786009 0,-0.312653 -0.209411,-0.357593 -2.057528,-0.441594 L 36.99865,19.61748 36.94841,18.027694 c -0.02764,-0.874383 -0.08522,-1.687448 -0.127978,-1.806812 -0.119853,-0.3346 -3.256629,0.404127 -5.272415,1.241682 -2.972963,1.235253 -5.333191,3.107852 -7.388369,5.861896 -1.071692,1.43613 -2.12163,3.417662 -2.594502,4.896567 -0.131566,0.411474 -0.332223,0.809967 -0.445911,0.885548 -0.113688,0.07558 -1.32198,0.1387 -2.685093,0.140275 l -2.478386,0.003 v 9.445199 9.445198 H 27.27216 38.588563 Z"
       id="path351" />
    <path
       style="fill:#bbbbbb;fill-opacity:1;stroke-width:1"
       d="m 53.178301,54.599281 c 0,-0.04785 -0.258945,-0.381908 -0.57543,-0.74234 -0.921634,-1.049603 -2.049014,-1.110048 -3.166539,-0.169785 -1.022349,0.860182 -0.801093,0.999133 1.590918,0.999133 1.183078,0 2.151051,-0.03915 2.151051,-0.08701 z"
       id="path349" />
    <path
       style="fill:#bbbbbb;fill-opacity:1;stroke-width:1"
       d="m 24.209618,54.35898 c -0.447613,-0.830294 -1.160101,-1.262477 -2.081283,-1.262477 -0.921181,0 -1.63367,0.432183 -2.081283,1.262477 -0.163562,0.303391 -0.01149,0.327309 2.081283,0.327309 2.092749,0 2.244845,-0.0239 2.081283,-0.327309 z"
       id="path347" />
    <path
       style="fill:#bbbbbb;fill-opacity:1;stroke-width:1"
       d="m 18.634668,54.151302 c 0.144128,-0.720577 0.951745,-1.645548 1.826314,-2.091687 1.941468,-0.990384 4.635801,0.118288 5.133453,2.112332 l 0.128368,0.514342 h 10.790929 10.79093 l 0.230151,-0.636419 c 0.536835,-1.484479 1.79425,-2.356119 3.398913,-2.356119 1.563291,0 2.853559,0.856842 3.453968,2.293713 l 0.292012,0.698825 h 1.493873 1.493874 V 52.161335 49.636381 H 36.811602 15.955751 v 2.524954 2.524954 h 1.285955 c 1.265253,0 1.287676,-0.0086 1.392962,-0.534987 z"
       id="path345" />
    <path
       style="fill:#bbbbbb;fill-opacity:1;stroke-width:1"
       d="m 84.789412,50.8521 v -7.200795 h -0.654668 -0.654668 v 7.200795 7.200795 h 0.654668 0.654668 z"
       id="path343" />
    <path
       style="fill:#bbbbbb;fill-opacity:1;stroke-width:1"
       d="m 87.560793,60.063506 0.05919,-0.514342 h -3.379287 -3.379288 v 0.533352 0.533349 l 3.320102,-0.019 3.320102,-0.019 z"
       id="path341" />
    <path
       style="fill:#d69424;fill-opacity:1;stroke-width:1"
       d="M 61.969557,59.08158 V 56.182558 H 35.876362 9.7831678 v 2.899022 2.899021 H 35.876362 61.969557 Z"
       id="path339" />
  </g>
</svg>
